<?xml version="1.0" encoding="iso-8859-1"?>
<!-- Generator: Adobe Illustrator 19.0.0, SVG Export Plug-In . SVG Version: 6.00 Build 0)  -->
<svg version="1.1" id="Capa_1" xmlns="http://www.w3.org/2000/svg" xmlns:xlink="http://www.w3.org/1999/xlink" x="0px" y="0px"
	 viewBox="0 0 48 48" style="enable-background:new 0 0 48 48;" xml:space="preserve">
<g>
	<g>
		<path d="M47.988,21.94c-0.006-0.091-0.023-0.179-0.054-0.266c-0.011-0.032-0.019-0.063-0.033-0.094
			c-0.048-0.103-0.108-0.199-0.191-0.283c-0.001-0.002-0.002-0.003-0.004-0.005L42,15.586V10c0-0.021-0.011-0.04-0.012-0.061
			c-0.006-0.089-0.023-0.175-0.052-0.259c-0.011-0.032-0.019-0.062-0.033-0.093c-0.049-0.106-0.11-0.207-0.196-0.293l-9-9
			c-0.086-0.086-0.186-0.147-0.292-0.196c-0.031-0.014-0.063-0.023-0.095-0.034c-0.083-0.028-0.168-0.045-0.256-0.051
			C32.042,0.011,32.022,0,32,0H7C6.447,0,6,0.448,6,1v14.586l-5.706,5.706c-0.002,0.002-0.002,0.003-0.004,0.005
			c-0.083,0.083-0.143,0.18-0.191,0.283c-0.014,0.03-0.022,0.062-0.033,0.094c-0.03,0.086-0.048,0.174-0.054,0.266
			C0.011,21.961,0,21.979,0,22v19c0,0.552,0.447,1,1,1h5v5c0,0.552,0.447,1,1,1h34c0.553,0,1-0.448,1-1v-5h5c0.553,0,1-0.448,1-1V22
			C48,21.979,47.989,21.961,47.988,21.94z M44.586,21H42v-2.586L44.586,21z M38.586,9H33V3.414L38.586,9z M8,2h23v8
			c0,0.552,0.447,1,1,1h8v5v5H8v-5V2z M6,18.414V21H3.414L6,18.414z M40,46H8v-4h32V46z M46,40H2V23h5h34h5V40z"/>
		<polygon points="25.802,30.843 22.198,30.843 22.198,25.964 20.175,25.964 20.175,38 22.198,38 22.198,32.662 25.802,32.662 
			25.802,38 27.825,38 27.825,25.964 25.802,25.964 		"/>
		<path d="M17.378,26.72c-0.323-0.277-0.688-0.473-1.097-0.586c-0.408-0.113-0.805-0.17-1.19-0.17H11.76V38h2.006v-4.828h1.428
			c0.419,0,0.827-0.074,1.224-0.221c0.397-0.147,0.748-0.374,1.054-0.68c0.306-0.306,0.552-0.688,0.74-1.148
			c0.187-0.459,0.281-0.994,0.281-1.606c0-0.68-0.105-1.247-0.315-1.7S17.701,26.998,17.378,26.72z M16.095,31.005
			c-0.306,0.334-0.697,0.501-1.173,0.501h-1.156v-3.825h1.156c0.476,0,0.867,0.147,1.173,0.442c0.306,0.295,0.459,0.765,0.459,1.411
			C16.554,30.18,16.401,30.67,16.095,31.005z"/>
		<path d="M35.891,26.72c-0.323-0.277-0.688-0.473-1.097-0.586c-0.408-0.113-0.805-0.17-1.19-0.17h-3.332V38h2.006v-4.828h1.428
			c0.419,0,0.827-0.074,1.224-0.221c0.397-0.147,0.748-0.374,1.054-0.68c0.306-0.306,0.553-0.688,0.739-1.148
			c0.187-0.459,0.28-0.994,0.28-1.606c0-0.68-0.105-1.247-0.314-1.7S36.215,26.998,35.891,26.72z M34.608,31.005
			c-0.306,0.334-0.697,0.501-1.173,0.501h-1.156v-3.825h1.156c0.476,0,0.867,0.147,1.173,0.442c0.306,0.295,0.459,0.765,0.459,1.411
			C35.067,30.18,34.914,30.67,34.608,31.005z"/>
	</g>
</g>
<g>
</g>
<g>
</g>
<g>
</g>
<g>
</g>
<g>
</g>
<g>
</g>
<g>
</g>
<g>
</g>
<g>
</g>
<g>
</g>
<g>
</g>
<g>
</g>
<g>
</g>
<g>
</g>
<g>
</g>
</svg>
