<svg xmlns="http://www.w3.org/2000/svg" width="152.46" height="35" viewBox="0 0 152.46 35"><rect class="svg__rect" x="0" y="0" width="83.76" height="35" fill="#31C4F3"/><rect class="svg__rect" x="81.76" y="0" width="70.7" height="35" fill="#171515"/><path class="svg__text" d="M13.97 18.13L13.97 18.13L13.97 17.46Q13.97 15.53 14.90 14.44Q15.82 13.35 17.48 13.35L17.48 13.35Q18.90 13.35 19.74 14.05Q20.58 14.76 20.75 16.08L20.75 16.08L19.30 16.08Q19.05 14.54 17.51 14.54L17.51 14.54Q16.51 14.54 16.00 15.26Q15.48 15.98 15.46 17.37L15.46 17.37L15.46 18.02Q15.46 19.40 16.04 20.17Q16.63 20.93 17.66 20.93L17.66 20.93Q18.80 20.93 19.28 20.42L19.28 20.42L19.28 18.75L17.52 18.75L17.52 17.62L20.76 17.62L20.76 20.89Q20.29 21.50 19.47 21.81Q18.65 22.12 17.61 22.12L17.61 22.12Q16.54 22.12 15.71 21.63Q14.89 21.14 14.44 20.24Q13.99 19.33 13.97 18.13ZM26.94 22L25.46 22L25.46 13.47L26.94 13.47L26.94 22ZM33.43 14.66L30.79 14.66L30.79 13.47L37.56 13.47L37.56 14.66L34.90 14.66L34.90 22L33.43 22L33.43 14.66ZM42.80 22L41.32 22L41.32 13.47L42.80 13.47L42.80 17.02L46.61 17.02L46.61 13.47L48.09 13.47L48.09 22L46.61 22L46.61 18.21L42.80 18.21L42.80 22ZM52.70 19.16L52.70 19.16L52.70 13.47L54.17 13.47L54.17 19.18Q54.17 20.03 54.61 20.48Q55.04 20.93 55.88 20.93L55.88 20.93Q57.59 20.93 57.59 19.13L57.59 19.13L57.59 13.47L59.07 13.47L59.07 19.17Q59.07 20.53 58.20 21.32Q57.33 22.12 55.88 22.12L55.88 22.12Q54.42 22.12 53.56 21.33Q52.70 20.55 52.70 19.16ZM66.75 22L63.64 22L63.64 13.47L66.56 13.47Q68.01 13.47 68.77 14.05Q69.52 14.63 69.52 15.78L69.52 15.78Q69.52 16.36 69.21 16.83Q68.89 17.30 68.28 17.56L68.28 17.56Q68.97 17.75 69.35 18.26Q69.73 18.78 69.73 19.51L69.73 19.51Q69.73 20.71 68.96 21.36Q68.19 22 66.75 22L66.75 22ZM65.12 18.15L65.12 20.82L66.77 20.82Q67.47 20.82 67.86 20.47Q68.25 20.13 68.25 19.51L68.25 19.51Q68.25 18.18 66.89 18.15L66.89 18.15L65.12 18.15ZM65.12 14.66L65.12 17.06L66.58 17.06Q67.27 17.06 67.66 16.75Q68.05 16.43 68.05 15.86L68.05 15.86Q68.05 15.23 67.69 14.95Q67.33 14.66 66.56 14.66L66.56 14.66L65.12 14.66Z" fill="#FFFFFF"/><path class="svg__text" d="M98.33 22L95.95 22L95.95 13.60L99.79 13.60Q100.93 13.60 101.77 13.98Q102.61 14.35 103.07 15.06Q103.52 15.76 103.52 16.71L103.52 16.71Q103.52 17.66 103.07 18.35Q102.61 19.05 101.77 19.42Q100.93 19.80 99.79 19.80L99.79 19.80L98.33 19.80L98.33 22ZM98.33 15.47L98.33 17.93L99.65 17.93Q100.38 17.93 100.75 17.61Q101.12 17.29 101.12 16.71L101.12 16.71Q101.12 16.12 100.75 15.80Q100.38 15.47 99.65 15.47L99.65 15.47L98.33 15.47ZM109.69 22L107.27 22L110.98 13.60L113.32 13.60L117.04 22L114.57 22L113.91 20.37L110.36 20.37L109.69 22ZM112.13 15.93L111.05 18.61L113.21 18.61L112.13 15.93ZM120.76 17.80L120.76 17.80Q120.76 16.54 121.36 15.54Q121.96 14.55 123.03 13.99Q124.10 13.43 125.44 13.43L125.44 13.43Q126.62 13.43 127.55 13.83Q128.49 14.22 129.11 14.97L129.11 14.97L127.60 16.33Q126.76 15.40 125.58 15.40L125.58 15.40Q125.57 15.40 125.56 15.40L125.56 15.40Q124.48 15.40 123.82 16.06Q123.16 16.71 123.16 17.80L123.16 17.80Q123.16 18.50 123.46 19.04Q123.76 19.59 124.30 19.89Q124.84 20.20 125.54 20.20L125.54 20.20Q126.22 20.20 126.82 19.93L126.82 19.93L126.82 17.62L128.92 17.62L128.92 21.10Q128.20 21.61 127.26 21.89Q126.33 22.17 125.39 22.17L125.39 22.17Q124.07 22.17 123.02 21.61Q121.96 21.05 121.36 20.05Q120.76 19.06 120.76 17.80ZM140.65 22L133.91 22L133.91 13.60L140.50 13.60L140.50 15.44L136.27 15.44L136.27 16.85L140.00 16.85L140.00 18.63L136.27 18.63L136.27 20.17L140.65 20.17L140.65 22Z" fill="#FFFFFF" x="94.76"/></svg>