<svg xmlns="http://www.w3.org/2000/svg" width="200.38" height="35" viewBox="0 0 200.38 35"><rect class="svg__rect" x="0" y="0" width="97.71000000000001" height="35" fill="#31C4F3"/><rect class="svg__rect" x="95.71000000000001" y="0" width="104.66999999999999" height="35" fill="#389AD5"/><path class="svg__text" d="M17.33 22L14.22 22L14.22 13.47L17.14 13.47Q18.59 13.47 19.34 14.05Q20.10 14.63 20.10 15.78L20.10 15.78Q20.10 16.36 19.78 16.83Q19.47 17.30 18.86 17.56L18.86 17.56Q19.55 17.75 19.93 18.26Q20.31 18.78 20.31 19.51L20.31 19.51Q20.31 20.71 19.53 21.36Q18.76 22 17.33 22L17.33 22ZM15.70 18.15L15.70 20.82L17.35 20.82Q18.04 20.82 18.44 20.47Q18.83 20.13 18.83 19.51L18.83 19.51Q18.83 18.18 17.47 18.15L17.47 18.15L15.70 18.15ZM15.70 14.66L15.70 17.06L17.15 17.06Q17.84 17.06 18.23 16.75Q18.62 16.43 18.62 15.86L18.62 15.86Q18.62 15.23 18.26 14.95Q17.90 14.66 17.14 14.66L17.14 14.66L15.70 14.66ZM24.64 19.16L24.64 19.16L24.64 13.47L26.12 13.47L26.12 19.18Q26.12 20.03 26.55 20.48Q26.98 20.93 27.83 20.93L27.83 20.93Q29.54 20.93 29.54 19.13L29.54 19.13L29.54 13.47L31.02 13.47L31.02 19.17Q31.02 20.53 30.15 21.32Q29.28 22.12 27.83 22.12L27.83 22.12Q26.36 22.12 25.50 21.33Q24.64 20.55 24.64 19.16ZM37.15 22L35.67 22L35.67 13.47L37.15 13.47L37.15 22ZM47.32 22L41.96 22L41.96 13.47L43.44 13.47L43.44 20.82L47.32 20.82L47.32 22ZM53.12 14.66L50.49 14.66L50.49 13.47L57.25 13.47L57.25 14.66L54.59 14.66L54.59 22L53.12 22L53.12 14.66ZM70.10 22L66.99 22L66.99 13.47L69.91 13.47Q71.36 13.47 72.11 14.05Q72.87 14.63 72.87 15.78L72.87 15.78Q72.87 16.36 72.55 16.83Q72.24 17.30 71.63 17.56L71.63 17.56Q72.32 17.75 72.70 18.26Q73.07 18.78 73.07 19.51L73.07 19.51Q73.07 20.71 72.30 21.36Q71.53 22 70.10 22L70.10 22ZM68.47 18.15L68.47 20.82L70.12 20.82Q70.81 20.82 71.21 20.47Q71.60 20.13 71.60 19.51L71.60 19.51Q71.60 18.18 70.24 18.15L70.24 18.15L68.47 18.15ZM68.47 14.66L68.47 17.06L69.92 17.06Q70.61 17.06 71.00 16.75Q71.39 16.43 71.39 15.86L71.39 15.86Q71.39 15.23 71.03 14.95Q70.67 14.66 69.91 14.66L69.91 14.66L68.47 14.66ZM79.58 18.86L76.72 13.47L78.37 13.47L80.33 17.51L82.29 13.47L83.93 13.47L81.07 18.86L81.07 22L79.58 22L79.58 18.86Z" fill="#FFFFFF"/><path class="svg__text" d="M116.28 22L109.90 22L109.90 13.60L112.28 13.60L112.28 20.11L116.28 20.11L116.28 22ZM119.82 21.34L119.82 21.34L120.68 19.55Q121.17 19.88 121.79 20.07Q122.41 20.25 123.01 20.25L123.01 20.25Q123.62 20.25 123.98 20.02Q124.34 19.79 124.34 19.37L124.34 19.37Q124.34 18.55 123.06 18.55L123.06 18.55L122.06 18.55L122.06 17.05L123.56 15.44L120.25 15.44L120.25 13.60L126.32 13.60L126.32 15.09L124.58 16.96Q125.62 17.18 126.18 17.82Q126.74 18.46 126.74 19.37L126.74 19.37Q126.74 20.11 126.34 20.75Q125.94 21.39 125.11 21.78Q124.29 22.17 123.08 22.17L123.08 22.17Q122.19 22.17 121.32 21.95Q120.45 21.74 119.82 21.34ZM133.75 22L131.42 22L131.42 13.60L133.38 13.60L137.09 18.07L137.09 13.60L139.41 13.60L139.41 22L137.46 22L133.75 17.52L133.75 22ZM148.50 20.39L144.06 20.39L144.06 18.84L147.83 13.60L150.29 13.60L146.87 18.51L148.57 18.51L148.57 17.08L150.81 17.08L150.81 18.51L152.06 18.51L152.06 20.39L150.81 20.39L150.81 22L148.50 22L148.50 20.39ZM158.84 22L156.46 22L156.46 13.60L160.30 13.60Q161.44 13.60 162.28 13.98Q163.12 14.35 163.58 15.06Q164.03 15.76 164.03 16.71L164.03 16.71Q164.03 17.62 163.60 18.30Q163.18 18.98 162.39 19.36L162.39 19.36L164.20 22L161.65 22L160.13 19.77L158.84 19.77L158.84 22ZM158.84 15.47L158.84 17.93L160.15 17.93Q160.89 17.93 161.26 17.61Q161.63 17.29 161.63 16.71L161.63 16.71Q161.63 16.12 161.26 15.79Q160.89 15.47 160.15 15.47L160.15 15.47L158.84 15.47ZM168.39 17.80L168.39 17.80Q168.39 16.45 168.86 15.46Q169.34 14.46 170.18 13.95Q171.02 13.43 172.10 13.43L172.10 13.43Q173.16 13.43 174.00 13.95Q174.84 14.46 175.32 15.46Q175.79 16.45 175.79 17.80L175.79 17.80Q175.79 19.15 175.32 20.15Q174.84 21.14 174.01 21.65Q173.17 22.17 172.10 22.17L172.10 22.17Q171.02 22.17 170.18 21.65Q169.34 21.14 168.86 20.15Q168.39 19.16 168.39 17.80ZM170.78 17.80L170.78 17.80Q170.78 19.06 171.13 19.64Q171.49 20.22 172.10 20.22L172.10 20.22Q172.70 20.22 173.05 19.64Q173.41 19.06 173.41 17.80L173.41 17.80Q173.41 16.54 173.05 15.96Q172.70 15.38 172.10 15.38L172.10 15.38Q171.49 15.38 171.13 15.96Q170.78 16.54 170.78 17.80ZM182.37 22L179.66 22L182.72 17.75L179.79 13.60L182.47 13.60L184.15 16.02L185.80 13.60L188.37 13.60L185.44 17.66L188.57 22L185.83 22L184.09 19.40L182.37 22Z" fill="#FFFFFF" x="108.71000000000001"/></svg>