<svg xmlns="http://www.w3.org/2000/svg" viewBox="0 0 522 174.838"><path fill="#FFD36A" d="M266.411 156.148H8.677a5.41 5.41 0 01-5.41-5.409V24.101a5.411 5.411 0 015.41-5.411h257.734"/><g fill="#FFF6DA"><path d="M50.377 57.637H73.47c12.828 0 23.824 4.766 23.824 19.794 0 14.57-11.361 20.894-23.824 20.894h-7.332v18.877H50.377V57.637zm22.36 28.224c6.23 0 9.164-3.115 9.164-8.431s-3.3-7.33-9.164-7.33h-6.599v15.761h6.599zM107.009 57.637h15.763v22.177h17.777V57.637h15.761v59.564h-15.761V93.56h-17.777v23.642h-15.763V57.637zM169.506 57.637h23.093c12.828 0 23.825 4.766 23.825 19.794 0 14.57-11.362 20.894-23.825 20.894h-7.331v18.877h-15.762V57.637zm22.36 28.224c6.232 0 9.164-3.115 9.164-8.431s-3.299-7.33-9.164-7.33h-6.598v15.761h6.598z"/></g><path fill="#DDA74E" d="M513.324 18.689H266.411v137.459h246.913a5.412 5.412 0 005.41-5.409V24.101a5.413 5.413 0 00-5.41-5.412z"/><g fill="#FFF6DA"><path d="M355.408 99.655c2.017 3.849 4.948 5.682 7.515 5.682 4.215 0 6.597-2.017 6.597-9.531v-37.57h15.762V97.09c0 11.912-6.414 21.81-20.159 21.81-9.714 0-15.944-3.666-20.344-11.271l10.629-7.974zM403.425 99.563c4.216 3.391 9.531 5.773 13.929 5.773 4.766 0 6.782-1.558 6.782-4.216 0-2.841-3.025-3.757-8.064-5.772l-7.424-3.116c-6.414-2.566-12.003-7.973-12.003-16.587 0-10.171 9.163-18.511 22.176-18.511 6.78 0 14.295 2.566 19.793 7.973l-7.88 9.896c-4.032-2.84-7.515-4.306-11.913-4.306-3.849 0-6.232 1.374-6.232 4.031 0 2.841 3.392 3.849 8.798 5.957l7.24 2.84c7.421 2.933 11.638 8.064 11.638 16.313 0 10.08-8.431 19.061-23.275 19.061-7.516 0-16.13-2.749-22.544-8.522l8.979-10.814z"/></g><path fill="#DDA74E" d="M292.361 52.258a5.41 5.41 0 01-5.41 5.411h-40.724a5.413 5.413 0 01-5.413-5.411V40.486a5.413 5.413 0 015.413-5.412h40.724a5.41 5.41 0 015.41 5.412v11.772zM292.361 134.354a5.411 5.411 0 01-5.41 5.411h-40.724a5.414 5.414 0 01-5.413-5.411v-11.772a5.412 5.412 0 015.413-5.41h40.724a5.41 5.41 0 015.41 5.41v11.772z"/></svg>