<?xml version="1.0" encoding="utf-8"?>
<!-- Generator: Adobe Illustrator 16.0.3, SVG Export Plug-In . SVG Version: 6.00 Build 0)  -->
<!DOCTYPE svg PUBLIC "-//W3C//DTD SVG 1.1//EN" "http://www.w3.org/Graphics/SVG/1.1/DTD/svg11.dtd">
<svg version="1.1" id="Layer_3" xmlns="http://www.w3.org/2000/svg" xmlns:xlink="http://www.w3.org/1999/xlink" x="0px" y="0px"
	  viewBox="0 0 522 174.838" enable-background="new 0 0 522 174.838" xml:space="preserve">
<g>
	<path fill="#FFD36A" d="M266.411,156.148H8.677c-2.987,0-5.41-2.423-5.41-5.409V24.101c0-2.988,2.423-5.411,5.41-5.411h257.734"/>
	<g>
		<path fill="#FFF6DA" d="M50.377,57.637H73.47c12.828,0,23.824,4.766,23.824,19.794c0,14.57-11.361,20.894-23.824,20.894h-7.332
			v18.877H50.377V57.637z M72.737,85.861c6.23,0,9.164-3.115,9.164-8.431s-3.3-7.33-9.164-7.33h-6.599v15.761H72.737z"/>
		<path fill="#FFF6DA" d="M107.009,57.637h15.763v22.177h17.777V57.637h15.761v59.564h-15.761V93.56h-17.777v23.642h-15.763V57.637z
			"/>
		<path fill="#FFF6DA" d="M169.506,57.637h23.093c12.828,0,23.825,4.766,23.825,19.794c0,14.57-11.362,20.894-23.825,20.894h-7.331
			v18.877h-15.762V57.637z M191.866,85.861c6.232,0,9.164-3.115,9.164-8.431s-3.299-7.33-9.164-7.33h-6.598v15.761H191.866z"/>
	</g>
	<g>
		<g>
			<path fill="#DDA74E" d="M513.324,18.689H266.411v137.459h246.913c2.985,0,5.41-2.423,5.41-5.409V24.101
				C518.734,21.112,516.309,18.689,513.324,18.689z"/>
		</g>
	</g>
	<g>
		<path fill="#FFF6DA" d="M355.408,99.655c2.017,3.849,4.948,5.682,7.515,5.682c4.215,0,6.597-2.017,6.597-9.531v-37.57h15.762
			V97.09c0,11.912-6.414,21.81-20.159,21.81c-9.714,0-15.944-3.666-20.344-11.271L355.408,99.655z"/>
		<path fill="#FFF6DA" d="M403.425,99.563c4.216,3.391,9.531,5.773,13.929,5.773c4.766,0,6.782-1.558,6.782-4.216
			c0-2.841-3.025-3.757-8.064-5.772l-7.424-3.116c-6.414-2.566-12.003-7.973-12.003-16.587c0-10.171,9.163-18.511,22.176-18.511
			c6.78,0,14.295,2.566,19.793,7.973l-7.88,9.896c-4.032-2.84-7.515-4.306-11.913-4.306c-3.849,0-6.232,1.374-6.232,4.031
			c0,2.841,3.392,3.849,8.798,5.957l7.24,2.84c7.421,2.933,11.638,8.064,11.638,16.313c0,10.08-8.431,19.061-23.275,19.061
			c-7.516,0-16.13-2.749-22.544-8.522L403.425,99.563z"/>
	</g>
	<path fill="#DDA74E" d="M292.361,52.258c0,2.988-2.421,5.411-5.41,5.411h-40.724c-2.989,0-5.413-2.423-5.413-5.411V40.486
		c0-2.988,2.424-5.412,5.413-5.412h40.724c2.989,0,5.41,2.424,5.41,5.412V52.258z"/>
	<path fill="#DDA74E" d="M292.361,134.354c0,2.986-2.421,5.411-5.41,5.411h-40.724c-2.989,0-5.413-2.425-5.413-5.411v-11.772
		c0-2.988,2.424-5.41,5.413-5.41h40.724c2.989,0,5.41,2.422,5.41,5.41V134.354z"/>
</g>
</svg>
